<svg width="205" height="39" viewBox="0 0 205 39" fill="none" xmlns="http://www.w3.org/2000/svg">
<path d="M3 10.8964C9.94311 11.3034 16.8239 12.6211 23.7766 13.0482C44.6499 14.3302 65.4502 12.9344 86.3155 11.9723C111.515 10.8103 136.608 9.19556 161.753 6.99143C174.229 5.8978 186.952 3.1771 199.471 3.00674C212.001 2.83624 174.54 5.94133 162.101 7.66883C152.079 9.06061 142.191 11.2233 132.331 13.6857C123.741 15.8309 114.76 17.2327 106.465 20.6191C99.9719 23.2696 110.632 22.4099 112.879 22.731C121.097 23.9053 145.861 24.1958 137.629 25.2413C122.75 27.1311 107.039 27.0928 92.7994 33.0115C89.1276 34.5377 89.1693 36 92.7297 36" stroke="#F97316" stroke-width="5" stroke-linecap="square"/>
</svg>
